<?xml version="1.0" standalone="no"?>
<!DOCTYPE svg PUBLIC "-//W3C//DTD SVG 20010904//EN"
 "http://www.w3.org/TR/2001/REC-SVG-20010904/DTD/svg10.dtd">
<svg version="1.0" xmlns="http://www.w3.org/2000/svg"
 width="996.000000pt" height="598.000000pt" viewBox="0 0 996.000000 598.000000"
 preserveAspectRatio="xMidYMid meet">
<metadata>
Created by potrace 1.16, written by Peter Selinger 2001-2019
</metadata>
<g transform="translate(0.000000,598.000000) scale(0.100000,-0.100000)"
fill="#000000" stroke="none">
<path d="M4325 4460 c-84 -43 -144 -127 -145 -201 0 -50 17 -96 56 -151 l33
-47 -20 -58 c-26 -72 -36 -218 -20 -293 24 -114 91 -222 176 -280 l44 -30
-107 -108 c-288 -288 -442 -691 -349 -914 49 -117 211 -190 427 -192 176 -1
280 47 280 129 0 102 -89 168 -303 221 -99 25 -132 42 -113 61 10 10 117 -14
220 -48 49 -16 90 -28 91 -27 1 2 0 23 -4 47 -5 40 -11 48 -51 71 -24 14 -53
40 -63 58 -75 128 24 432 140 432 49 0 87 -31 122 -100 38 -77 55 -158 49
-235 -6 -74 -29 -121 -70 -143 -59 -33 -67 -44 -69 -101 l-3 -53 152 -58 153
-58 169 54 170 55 0 31 c0 23 -12 43 -44 78 -64 68 -70 99 -61 324 7 197 10
219 29 213 7 -2 13 -59 16 -167 4 -118 8 -165 18 -168 9 -3 12 14 12 61 0 131
13 278 24 274 7 -2 13 -62 16 -167 4 -116 9 -165 17 -167 10 -4 13 36 15 164
3 141 5 168 18 168 15 0 15 -3 29 -307 0 -16 5 -28 10 -28 5 0 12 77 16 170 7
151 16 197 30 158 3 -7 9 -97 14 -201 12 -227 5 -267 -58 -331 -22 -23 -41
-51 -41 -63 0 -21 2 -21 98 12 135 45 210 61 223 48 19 -19 1 -31 -59 -43 -92
-20 -228 -67 -269 -94 -78 -52 -107 -133 -69 -191 72 -109 436 -105 602 8 125
85 152 273 73 511 -70 209 -234 458 -379 571 l-51 40 23 15 c13 8 47 37 76 64
64 60 106 143 129 251 14 68 14 92 4 163 -6 46 -20 105 -31 131 l-19 49 24 22
c72 68 86 201 29 282 -46 65 -112 102 -194 106 -77 5 -127 -9 -169 -44 l-29
-24 -74 24 c-187 63 -425 62 -611 -3 l-57 -20 -52 32 c-44 28 -62 32 -127 35
-60 2 -84 -2 -116 -18z m905 -50 c41 -12 106 -38 145 -58 84 -44 206 -158 253
-234 69 -116 99 -252 81 -370 -30 -194 -139 -307 -356 -370 -73 -21 -97 -23
-358 -23 -235 0 -292 3 -357 18 -256 60 -392 235 -375 482 19 281 241 510 552
571 103 20 318 12 415 -16z"/>
<path d="M4723 4110 c-66 -33 -138 -103 -149 -144 -11 -45 5 -94 42 -131 44
-44 96 -47 161 -9 98 57 152 169 120 246 -28 68 -88 81 -174 38z"/>
<path d="M5143 4133 c-12 -2 -34 -18 -48 -34 -31 -37 -35 -119 -8 -159 57 -86
131 -140 191 -140 38 0 50 5 83 39 35 35 39 44 39 89 0 42 -6 58 -32 92 -57
73 -163 126 -225 113z"/>
<path d="M4950 3783 c-68 -13 -80 -73 -25 -126 41 -40 43 -56 12 -85 -29 -27
-51 -28 -77 -2 -22 22 -36 25 -44 11 -17 -27 38 -71 88 -71 14 0 37 11 52 24
l28 23 34 -23 c19 -13 47 -24 62 -24 31 0 80 34 80 55 0 25 -21 27 -46 4 -20
-19 -29 -21 -51 -13 -15 5 -34 21 -42 35 -14 25 -13 28 27 66 49 46 55 84 20
107 -27 16 -82 25 -118 19z"/>
<path d="M4020 1915 l0 -145 39 0 c39 0 40 1 43 38 l3 37 64 6 c81 8 111 36
111 103 0 78 -46 106 -176 106 l-84 0 0 -145z"/>
<path d="M4425 1924 c-33 -75 -61 -140 -63 -145 -2 -5 14 -9 37 -9 34 0 42 4
53 28 12 24 19 27 70 30 55 3 58 2 73 -28 13 -26 21 -30 56 -30 22 0 39 4 37
9 -1 5 -30 70 -63 145 l-60 136 -40 0 -40 0 -60 -136z"/>
<path d="M4800 1915 l0 -145 40 0 39 0 3 75 3 75 60 -75 c52 -65 64 -75 93
-75 l32 0 0 146 0 145 -37 -3 -38 -3 0 -72 c0 -83 1 -83 -76 14 -45 55 -55 63
-85 63 l-34 0 0 -145z"/>
<path d="M5220 1915 l0 -145 85 0 c99 0 139 14 179 61 25 30 28 39 24 91 -7
100 -62 138 -203 138 l-85 0 0 -145z m196 50 c18 -24 18 -76 1 -99 -11 -15
-69 -35 -104 -36 -10 0 -13 23 -13 83 l0 83 51 -6 c33 -4 57 -14 65 -25z"/>
<path d="M5726 2052 c-2 -4 -32 -70 -65 -145 l-60 -137 42 0 c38 0 44 3 54 30
11 29 14 30 71 30 57 0 60 -1 72 -30 11 -26 18 -30 51 -30 22 0 39 3 39 8 0 4
-27 68 -60 142 l-59 135 -40 3 c-21 2 -42 -1 -45 -6z"/>
</g>
</svg>
